# xmcd
#
# Track frame offsets: 
#        150
#        11172
#        25300
#        34617
#        44975
#        52697
#        67712
#        75667
#        85795
#        92162
#
# Disc length: 1392 seconds
#
# Revision: 2
# Processed by: cddbd v1.5.2PL0 Copyright (c) Steve Scherf et al.
# Submitted via: ExactAudioCopy v1.3
#
DISCID=71056e0a
DTITLE=Lou Barlow - Winning Losers (A Collection Of Home Recordings)
DYEAR=1994
DGENRE=Indie
TTITLE0=Stronger
TTITLE1=Chokechain
TTITLE2=Only Losers
TTITLE3=Breakdown Day
TTITLE4=Rise Below Slowly
TTITLE5=Dragdown Memory
TTITLE6=Not Nice To Be Nice
TTITLE7=Mellow, Cool, And Painfully Aware
TTITLE8=Crackers And Coffee
TTITLE9=High School
EXTD=
EXTT0=
EXTT1=
EXTT2=
EXTT3=
EXTT4=
EXTT5=
EXTT6=
EXTT7=
EXTT8=
EXTT9=
PLAYORDER=
